# xmcd CD database file
#
# Track frame offsets:
#	150
#	16590
#	31622
#	53127
#	70302
#	88298
#	101537
#	117032
#	133987
#	151828
#	165428
#	176716
#	195935
#	212958
#	230521
#
# Disc length: 3709 seconds
#
# Revision: 0
# Processed by: cddbd v1.5.2PL0 Copyright (c) Steve Scherf et al.
# Submitted via: CDex 1.51
#
DISCID=bd0e7b0f
DTITLE=Beck - The Information
DYEAR=2006
DGENRE=Rhythmic Soul
TTITLE0=Elevator Music
TTITLE1=Think I'm in Love
TTITLE2=Cellphone's Dead
TTITLE3=Strange Apparition
TTITLE4=Soldier Jane
TTITLE5=Nausea
TTITLE6=New Round
TTITLE7=Dark Star
TTITLE8=We Dance Alone
TTITLE9=No Complaints
TTITLE10=1000 BPM
TTITLE11=Motorcade
TTITLE12=The Information
TTITLE13=Movie Theme
TTITLE14=The Horrible Fanfare/Land Exoskeleton
EXTD=YEAR: 2006
EXTT0=
EXTT1=
EXTT2=
EXTT3=
EXTT4=
EXTT5=
EXTT6=
EXTT7=
EXTT8=
EXTT9=
EXTT10=
EXTT11=
EXTT12=
EXTT13=
EXTT14=
PLAYORDER=
